<svg width="51" height="40" viewBox="0 0 51 40" fill="none" xmlns="http://www.w3.org/2000/svg">
<path d="M50.106 1.26656C49.2372 0.156139 47.7185 1.04572 47.0497 1.43322C42.2914 4.23739 41.5893 9.17489 39.931 12.0103C38.6268 14.2811 36.4893 15.9478 34.556 16.077C33.1268 16.1791 31.5768 15.902 30.0393 15.2332C26.2747 13.6061 24.2476 11.4999 23.7539 11.1291C22.7393 10.3582 14.9414 2.76447 8.58722 2.45406C8.58722 2.45406 7.81222 0.891556 7.61847 0.864473C7.15597 0.812389 6.68097 1.80406 6.33513 1.90822C6.02263 2.01864 5.47472 0.841556 5.15805 0.893639C4.8393 0.935306 4.52888 2.11447 3.90805 2.72072C3.44972 3.16447 2.89555 3.13739 2.58097 3.68531C2.47263 3.88531 2.51013 4.23739 2.38722 4.56031C2.12263 5.22697 1.2393 5.29781 1.23097 6.01239C1.23097 6.80614 1.97472 6.95822 2.62472 7.51239C3.14138 7.95406 3.1768 8.26656 3.77888 8.47281C4.31638 8.65614 5.09555 8.08322 5.78722 8.28947C6.3643 8.45822 6.91847 8.58114 7.04138 9.17072C7.15388 9.70406 7.04138 10.5416 6.33305 10.4478C6.09972 10.4166 5.08722 10.0853 3.83722 10.2186C2.3268 10.3791 0.601799 10.8624 0.433049 12.5311C0.347632 13.4624 1.50388 14.552 2.63097 14.3353C3.40388 14.1874 3.0393 13.2811 3.46222 12.8436C4.01847 12.2811 7.15388 14.8103 10.0705 14.8103C11.306 14.8103 12.2185 14.4978 13.1268 13.5499C13.2101 13.4895 13.3205 13.3374 13.4497 13.3207C13.595 13.357 13.7326 13.4191 13.856 13.5041C16.2122 15.3728 17.9893 19.1291 26.6268 19.1728C27.8393 19.1874 29.231 19.7541 30.3685 20.7916C31.3685 21.6936 31.9601 23.1353 32.5289 24.5936C33.3997 26.7874 34.9476 28.9041 37.3039 31.2666C37.4289 31.4082 39.3664 32.8916 39.5122 33.002C39.5372 33.0228 39.6872 33.3499 39.6226 33.5332C39.581 34.9707 39.3664 39.0957 42.4664 39.2686C43.2289 39.3103 43.0393 38.7874 43.0393 38.4145C43.0289 37.7041 42.9039 36.9874 43.2747 36.2478C43.8018 35.252 42.1789 34.7707 42.2143 32.5895C42.2539 30.9561 40.8705 31.2332 40.1643 29.9853C39.7685 29.2707 39.3976 28.877 39.4351 28.0145C39.5872 23.0561 38.358 19.7895 37.758 18.9999C37.2851 18.3874 36.8768 18.1603 37.3268 17.8749C39.9101 16.177 40.5039 14.5957 40.5039 14.5957C41.8789 11.3853 43.1205 8.46031 44.8268 7.15822C45.1726 6.90822 46.0539 6.24156 46.6018 5.99156C48.1914 5.23739 49.0455 4.78739 49.4935 4.34989C50.2351 3.64781 50.8164 2.15614 50.106 1.26656Z" fill="black"/>
</svg>
